<svg xmlns="http://www.w3.org/2000/svg" xmlns:xlink="http://www.w3.org/1999/xlink" id="Layer_1" x="0px" y="0px" viewBox="0 0 711 234" style="enable-background:new 0 0 711 234;" xml:space="preserve">
<style type="text/css">
	.st0{fill:#003870;}
	.st1{fill:#4A85FF;}
</style>
<g>
	<g>
		<path class="st0" d="M110.9,67.4H59.3v28.5h51.6c5.5,0,8.3,2.4,8.3,7.2v36.2c0,5-2.8,7.4-8.3,7.4H54.1c-5.7,0-8.5-2.4-8.5-7.4    V95.9h0V67.4h0V18H9.8v122.9c0,24.1,14.7,36,44.3,36h56.8c29.6,0,44.3-12,44.3-36v-37.5C155.2,79.3,140.5,67.4,110.9,67.4"></path>
		<rect x="173.6" y="18" class="st0" width="35.9" height="158.9"></rect>
		<path class="st0" d="M370.6,67.4v73.9c0,23.7-14.7,35.7-44.3,35.7h-54.1c-29.6,0-44.3-12-44.3-36V67.4h35.9v74.1    c0,3.5,2.8,5.1,8.5,5.1h54.1c5.5,0,8.3-1.7,8.3-5.1V67.4H370.6z"></path>
	</g>
	<g>
		<g>
			<rect x="9.3" y="194" class="st1" width="360.1" height="31.2"></rect>
			<rect x="446.1" y="18" class="st1" width="192.6" height="31.2"></rect>
			<rect x="389.1" y="67.4" class="st1" width="35.9" height="157.9"></rect>
			<path class="st1" d="M544.5,67.4h-56.8c-29.6,0-44.3,12-44.3,36v121.8h35.9V177v-30.3v-12.2v-31.2c0-5,2.8-7.4,8.5-7.4h56.8     c5.5,0,8.3,2.4,8.3,7.4v36.2c0,4.8-2.8,7.2-8.3,7.2h-51.6V177h51.6c29.6,0,44.3-12,44.3-36v-37.5     C588.8,79.3,574.1,67.4,544.5,67.4"></path>
			<polygon class="st1" points="656.6,49 656.6,24 649.5,24 649.5,18.4 668.7,18.4 668.7,24 661.9,24 661.9,49    "></polygon>
			<polygon class="st1" points="686.3,44.2 687.1,44.2 691.3,18.4 702,18.4 702,49 696.7,49 696.7,22.9 695.8,22.9 691.1,49      682.6,49 677.9,22.9 677,22.9 677,49 671.7,49 671.7,18.4 682,18.4    "></polygon>
		</g>
		<g>
			<g>
				<path class="st1" d="M407.2,33.7c-2.1,0-3.8-1.7-3.8-3.8V9c0-2.1,1.7-3.8,3.8-3.8s3.8,1.7,3.8,3.8v21      C410.9,32.1,409.2,33.7,407.2,33.7z"></path>
			</g>
			<g>
				<path class="st1" d="M407.1,55.1c-13.6,0-24.6-11-24.6-24.6c0-6,2.1-11.2,6.3-15.6c1.6-1.6,4.1-1.7,5.7-0.1s1.7,4.1,0.1,5.7      c-2.7,2.9-4.1,6.1-4.1,10c0,9.1,7.4,16.5,16.5,16.5s16.5-7.4,16.5-16.5c0-3.9-1.3-7.2-4.1-10c-1.6-1.6-1.5-4.2,0.1-5.7      c1.6-1.6,4.2-1.5,5.7,0.1c4.2,4.4,6.4,9.7,6.4,15.7C431.7,44.1,420.7,55.1,407.1,55.1z"></path>
			</g>
		</g>
	</g>
</g>
</svg>